<?xml version="1.0" encoding="UTF-8" standalone="no"?>
<svg xmlns="http://www.w3.org/2000/svg" xml:space="preserve" width="170.375" height="150.98093">
  <path fill="#fff" stroke="#fff" stroke-width=".0938" d="M86.8125.06378258c-2.26263-.01313-4.54525.075-6.84375.25 1.84 3.58100002 3.862 7.16175002 5.5 10.84375042-2.715-1.3710004-5.22475-3.0467504-7.84375-4.7187504-.354 4.1030004-.3085 8.2092504-.0625 12.4062504 2.486-1.328 4.87225-2.7625 7.15625-4.1875.121 1.9.13525 3.88225.15625 5.78125-2.484 1.429-5.4645 2.383-6.9375 5-2.852 4.33-.9825 10.804 3.9375 12.75 5.836 3.337 14.3865-1.76125 13.8125-8.65625-.147-4.198-3.67575-6.86-7.09375-8.625-.02-1.9-.0445-3.701-.0625-5.5 2.314 1.275 4.5255 2.64475 6.9375 3.71875.258-3.803.3285-7.701.1875-11.5000004-2.586 1.328-5.09425 2.5565004-7.78125 3.6875004 1.757-3.7200004 3.9255-7.2497504 5.6875-10.96875042-2.253-.1765-4.48737-.268125-6.75-.28125zM84.71875 23.251283c.021 1.8.0175 3.6125-.0625 5.3125-1.606-.583-3.2055-1.16175-4.8125-1.84375 1.587-1.217 3.186-2.34975 4.875-3.46875zm3.90625.5625c1.311 1.187 2.63075 2.464 3.84375 3.75-1.297.414-2.61325.82975-3.90625 1.34375-.019-1.699-.0195-3.39275.0625-5.09375zm-4.34375 9.1875c2.56292-.06027 5.07062.426875 6.96875 2.46875-3.984 1.545-8.59225 1.49925-11.53125-1.96875 1.46025-.241125 3.02475-.463836 4.5625-.5zm-17.5605.05c2.181-1.824 6.299-.169 6.23 2.732.332 2.697-2.75 4.631-5.16 3.756-3.204-.364-3.955-5.056-1.07-6.488zm31.994-.45c2.775-2.33 7.52 1.319 5.652 4.54-1.07 2.812-5.869 3.064-6.902.076-1.217-1.589-.139-3.599 1.25-4.616zm-42.971 2.57c2.48-1.728 6.507.628 5.938 3.636-.472 2.405-3.649 4.439-5.767 2.863-2.813-1.069-2.76-5.27-.171-6.499zm55.006.4c3.383-1.339 7.24 3.521 3.865 5.958-1.578 2.018-4.785 1.554-6.008-.533-1.621-1.883-.052-4.802 2.143-5.425zm-66.93 6.731c.359-3.704 7.154-4.277 7.298-.18.528 2.493-2.062 3.522-3.648 4.74-1.514-1.283-4.025-2.256-3.65-4.56zm77.075-2.542c1.988-1.021 5.303.143 5.229 2.544.738 3.29-3.74 5.54-6.062 3.265-2.316-1.274-1.357-4.985.833-5.809zm-93.886 19.928c14.094-9.758 30.526-16.136 47.397-18.82 2.572 6.573 5.045 13.246 6.222 20.233-1.299.214-2.596.328-3.794.542-1.162-5.688-2.825-11.372-5.083-16.646-19.157 3.909-37.67 12.212-52.225 25.472-1.007-.59-2.015-1.278-3.021-1.867 3.062-3.533 6.731-6.273 10.504-8.914zm57.002-18.424c4.376-2.148 7.556 5.115 2.872 6.666-4.279 1.848-7.154-4.819-2.872-6.666zm12.803.26c20.838 3.371 40.445 12.958 56.297 26.786-.795.908-1.582 1.816-2.471 2.827-14.641-12.841-32.539-21.646-51.584-25.538-2.141 5.423-3.977 10.943-5.219 16.558-1.201-.188-2.504-.373-3.705-.559 1.427-6.915 3.85-13.643 6.682-20.074zm-61.65 4.772c-.022-1.998 2.677-2.229 4.065-3.144 1.013 1.089 1.923 2.178 2.937 3.267-1.086 1.213-1.661 3.618-3.663 3.44-1.898.121-4.018-1.555-3.339-3.563zm94.992-1.037c1.793-.322 4.191-.746 5.113 1.243 1.316 1.486-.053 4.302-1.951 4.422-1.994.622-3.217-1.265-4.527-2.251.391-.802.973-2.51 1.365-3.414zm-104.628 7.043c1.374-2.517 3.864-3.243 6.572-2.673.119 1.699.039 3.501-.044 5.202-2.694.629-5.101-.045-6.528-2.529zm56.008.388c1.372-2.716 3.862-3.342 6.669-2.674.02 1.702.037 3.401-.043 5.203-2.694.628-5.198.056-6.626-2.529zm58.277-2.337c4.279-2.046 6.357 5.232 1.76 5.582-3.587 1.038-5.052-4.645-1.76-5.582zm-120.452 5.118c1.901-.021 3.809.656 5.42 1.739-.788 1.108-1.475 2.318-2.364 3.326-1.4-.084-2.705-.569-4.01-.856.285-1.403.571-2.805.954-4.209z"/>
  <path fill="#fff" stroke="#fff" stroke-width=".0938" d="M42.0625 55.720033c-4.026 6.743-4.63225 15.36825-1.15625 22.53125-4.522-1.949-10.14-2.417-14 1.125-7.541 5.583-5.293 18.2745 2.75 22.187497-.046-4.098997-.79675-9.887497 3.78125-11.937497 4.571-2.551 10.29925 1.49275 10.15625 6.59375.894 8.690997-8.8315 13.999247-16.4375 13.281247-9.01-.801-15.3955-9.05025-17.1875-17.531247 4.417 1.35 8.023 4.1035 11.75 6.5625-1.076-7.088-3.151-14.0595-5.125-20.9375-2.771 2.731-5.6285 5.55375-9.3125 7.09375 1.948-4.62 4.90625-8.851 7.15625-13.375-4.892.754-9.689 2.21475-14.375 3.46875.629 2.692 1.65325 5.3715 2.28125 8.0625.734 2.894-.432 5.81775-.5 8.71875.241 3.796 4.76625 5.15175 5.40625 8.843747 1.041 3.79 1.9965 7.59225 2.9375 11.28125 1.659 5.284-1.408 10.3-1.25 15.5 3.436 3.46 6.8795 7.01175 10.8125 9.96875 2.897-.232 5.4955-1.645 8.1875-2.375 14.456-4.157 29.41725-5.811 44.40625-6.875 26.073-2.584 52.71475 1.42325 77.21875 10.65625 3.654-4.34 7.41775-8.50575 10.96875-12.84375-.848-4.293-2.49575-8.44775-2.84375-12.84375 1.156-4.113 2.7305-8.234 4.1875-12.25.965-3.110997 4.22875-4.853497 5.09375-8.062497.375-2.204-.45725-4.4855-.28125-6.6875.968-3.112 2.455-6.0515 3.625-9.0625-4.015-1.259-8.139-2.38875-12.25-3.34375 1.449 4.285 2.89675 8.655 3.34375 13.25-2.422-2.372-4.63875-4.95625-6.96875-7.53125-2.237 5.724-4.59525 11.5455-6.03125 17.5625 3.791-.943 7.3765-2.56525 11.0625-3.90625-2.121 7.323997-6.91775 14.564997-14.59375 16.749997-6.378 2.168-14.31425-.34525-17.78125-6.40625-2.341-3.775997-1.619-9.182747 1.75-12.218747 1.979-2.024 6.10125-1.8745 7.53125.8125 2.133 3.076.1505 6.82-.3125 10.124997 3.781-1.940997 7.867-4.099747 9.625-8.218747 2.442-5.426 1.2635-13.594-5.0625-15.625-4.314-1.751-8.51375.6735-12.09375 2.8125 3.817-7.741 4.012-17.0535.125-24.8125-6.639 5.473-10.73875 14.32125-9.34375 22.90625-1.721-1.98-3.42425-4.26025-6.03125-5.03125-4.414-.951-9.79275 1.32675-11.34375 5.84375-1.447 4.816-.391 10.4025 3.25 14.0625 1.371-2.615 1.81625-6.43475 4.90625-7.46875 3.385-1.237 6.719 1.8425 7.25 4.9375 1.271 6.686-4.549 13.426997-11.25 13.499997-5.998.265-12.4275-2.652-15.1875-8.124997-1.53-2.583-1.56275-5.69275-1.59375-8.59375 2.816 1.471 5.43325 3.4435 8.15625 5.3125.627-6.706.773-13.4905.5-20.1875-3.381 1.637-6.35325 4.065-9.53125 6 1.547-4.717 3.4905-9.3445 4.9375-14.0625-5.503-.339-11.11975-.37875-16.71875-.21875 1.455 4.985 3.6085 9.766 5.0625 14.75-2.927-2.268-5.549-4.85075-8.375-7.21875-.626 6.705-.9365 13.52275-.5625 20.21875 3.181-1.735 6.136-3.762 9.625-5-.657 4.208-2.00375 8.3055-4.96875 11.4375-5.043 5.355997-13.52325 6.751997-20.15625 3.624997-4.419-1.752-7.6865-6.597247-6.9375-11.406247.257-3.803 4.632-7.06725 8.25-5.40625 3.317 1.464 3.0565 5.6745 4.1875 8.5625 2.97-2.833 6.0355-6.38525 5.6875-10.78125.636-5.806-5.43375-11.514-11.21875-10.25-2.393.526-4.27025 2.1415-6.15625 3.5625.612-8.108-2.87325-16.0795-9.03125-21.3125zm42.78125 25.75c.0918-.0159.18939-.008.28125 0 1.10231.0909 2.10275 1.66925 1.0625 2.65625-1.385 1.415-3.611-.83925-2.125-2.15625.24019-.28387.50581-.45235.78125-.5zm-80.125 5.5625c1.826 2.28 2.33875 5.07 1.96875 7.875-2.422-1.974-2.93775-4.964-1.96875-7.875zm158.59375.78125c.916 1.589 1.24975 3.35925 1.46875 5.15625-1.09.713-2.285 1.44525-3.375 2.15625.17-2.602.83025-5.0015 1.90625-7.3125zM84.21875 106.75128c1.323 2.285 2.64275 4.588 3.96875 6.875-1.273 2.514-2.629 4.9215-4 7.4375-1.328-2.386-2.55725-4.77125-3.78125-7.15625 1.273-2.416 2.5355-4.74125 3.8125-7.15625zm-18.28125 2.21875c1.505.383 3.0305.8535 4.4375 1.4375-.69 1.108-1.3765 2.23375-2.0625 3.34375-1.004-.39-1.9345-.7985-2.9375-1.1875.187-1.203.3785-2.38975.5625-3.59375zm32 .0312c1.203-.013 2.41975.0775 3.71875.0625.016 1.301.109 2.60625.125 3.90625-1.303.013-2.577.137-3.875.25-.018-1.4-.0507-2.81675.0312-4.21875zm-47.875.46875c4.84683-.0529 10.01725 2.745 8.875 8.15625-2.422 7.029-14.09875 8.2715-17.96875 1.8125-1.741-3.78 1.20975-7.5015 4.59375-8.9375 1.293-.66425 2.88439-1.01362 4.5-1.03125zm66.84375.625c5.05485.009 10.6415 3.36225 9.96875 8.8125-2.52 7.527-15.14475 6.76175-18.21875.0937-1.439-3.784 1.11525-7.50175 4.90625-8.34375 1.0275-.36731 2.17725-.56459 3.34375-.5625zm-88.875 5.1875c2.003.377 3.09875 1.6685 3.71875 3.5625-1.094.413-2.18725.9255-3.28125 1.4375-.406-.496-1.40125-1.382-1.90625-1.875.39-.807 1.07775-2.321 1.46875-3.125zm108.90625.0937c1.4.083 2.79275.0693 4.09375.15625.123 1.998-.6735 3.71125-2.5625 4.53125-.506-.595-1.50025-1.6905-1.90625-2.1875.094-.598.281-1.801.375-2.5zm-67 2.84375c.41.897.842 1.69675 1.25 2.59375-.592.606-1.282 1.2055-1.875 1.8125-.905-.29-1.9075-.67875-2.8125-.96875.087-1.101.165-2.0855.25-3.1875 1-.111 2.0885-.137 3.1875-.25zm28.03125.6875c.803.392 2.41175 1.2965 3.21875 1.6875-.785 1.309-1.588 2.50975-2.375 3.71875-.805-.593-2.20125-1.68925-2.90625-2.28125.688-1.007 1.3755-2.116 2.0625-3.125zm56.5.5c.822 2.092 1.553 4.283 2.375 6.375-1.479 1.815-3.07825 3.6195-4.65625 5.4375-.724-2.092-1.426-4.19125-2.25-6.28125 1.479-1.918 2.94725-3.71425 4.53125-5.53125zm-140.40625.21885c1.318 1.486 2.9185 2.961 3.9375 4.75.022 1.899-.35225 3.81475-.53125 5.71875-1.714-1.383-3.53625-2.7755-4.65625-4.5625.279-2.005.771-4.00025 1.25-5.90625zm121.25 4.375c.902.391 1.81475.89125 2.71875 1.28125.01.7.0233 1.99375.0312 2.59375-.797.41-1.606.716-2.5 1.125-.506-.494-1.52-1.382-2.125-1.875.588-1.107 1.184-2.117 1.875-3.125zm-104.1875.0312c.506.595 1.618 1.89975 2.125 2.59375-1.288 1.013-2.68625 1.82675-4.28125 2.34375-.213-.999-.63275-2.90925-.84375-3.90625.997-.31 2.003-.72125 3-1.03125zm116.95675-67.669197c1.494-.315 2.9.47 4.307.854-.385 1.404-.867 2.91-1.352 4.316-1.004-.09-2.904-.17-3.807-.259-.115-1.698-.841-3.792.852-4.911z"/>
  <path fill="#fff" stroke="#fff" stroke-width=".0938" d="M83.89575 58.166283c1.096-.212 2.196-.324 3.196-.335.116 1.399.229 2.797.246 4.197-1.4.114-2.699.33-4.094.545-.016-1.5-1.241-3.687.652-4.407zm-72.435 6.392c1.173-2.314 3.162-3.537 5.769-2.864.016 1.501-.069 2.9-.151 4.401-1.999.223-4.005-.356-5.618-1.537zm142.287-2.056c1.695-.219 3.297-.236 4.996-.154.012.899.033 2.9.041 3.901-1.496.216-2.994.332-4.492.447-.217-1.397-.434-2.794-.545-4.194zm-119.312 72.908997c13.467-3.148 27.258-3.998 40.949-4.947 19.393-.712 39.1-.128 57.953 4.768 5.018 1.345 10.434 2.986 14.08 6.946-3.557 4.238-9.25 4.902-14.238 5.956-10.086 1.61-20.377 2.223-30.572 2.634-20.497.423-41.2.25-61.534-2.929-6.414-1.129-13.325-2.154-18.571-6.397 2.655-4.031 7.643-4.985 11.933-6.031z"/>
</svg>